Coordinates
version=1
nRows=25
nColumns=23
inDegrees=yes

Units are S.I. units (second, meters, Newtons, ...)
If the header above contains a line with 'inDegrees', this indicates whether rotational values are in degrees (yes) or radians (no).

endheader
time	pelvis_tilt	pelvis_list	pelvis_rotation	pelvis_tx	pelvis_ty	pelvis_tz	hip_flexion_r	hip_adduction_r	hip_rotation_r	knee_angle_r	knee_angle_r_beta	ankle_angle_r	subtalar_angle_r	mtp_angle_r	hip_flexion_l	hip_adduction_l	hip_rotation_l	knee_angle_l	knee_angle_l_beta	ankle_angle_l	subtalar_angle_l	mtp_angle_l
      7.50000000	     -6.20207149	      4.23574384	      0.91987612	      2.24451766	      0.94088302	      1.01779458	      9.41318789	    -12.77692996	    -15.12794301	     68.18986878	      1.19013773	     -6.21825377	    -12.97607425	      0.00000000	     24.89558410	      5.11650858	     -7.79341078	     30.96680301	      0.54047267	     11.04980531	     -0.64370876	      0.00000000
      7.50666667	     -5.87645759	      4.22977782	      1.11190411	      2.24255492	      0.93708960	      1.01742530	     10.74060181	    -12.70325760	    -14.26856007	     70.27825817	      1.22658700	     -5.16921835	    -12.49764232	      0.00000000	     24.79985404	      4.95647946	     -7.92271412	     33.48681831	      0.58445524	     12.91299989	     -0.22615812	      0.00000000
      7.51333333	     -5.09744203	      4.23004511	      1.42620085	      2.24071877	      0.93443736	      1.01692231	     11.46597258	    -12.58389499	    -13.57101141	     72.00261904	      1.25668277	     -4.26191062	    -12.20792699	      0.00000000	     23.90287384	      4.99553339	     -7.50778629	     35.39283311	      0.61772147	     14.60730626	     -0.47798781	      0.00000000
      7.52000000	     -5.03780239	      4.17567002	      1.58567365	      2.23857944	      0.93106213	      1.01681176	     13.18401410	    -12.37432759	    -12.69146256	     73.81786695	      1.28836483	     -3.10675818	    -11.28476002	      0.00000000	     23.75173040	      4.68015079	     -7.87232975	     37.33037025	      0.65153787	     16.73252969	      0.98228546	      0.00000000
      7.52666667	     -4.58317030	      4.10200906	      1.85863987	      2.23663265	      0.92890808	      1.01656431	     14.33642602	    -12.09122994	    -11.98173236	     75.22283466	      1.31288614	     -2.07934025	    -10.62591656	      0.00000000	     22.86284091	      4.51873550	     -7.75657210	     38.65028293	      0.67457469	     18.51287342	      1.74560852	      0.00000000
      7.53333333	     -4.20472572	      4.03198673	      2.10160359	      2.23473131	      0.92723686	      1.01640121	     15.56768413	    -11.76897454	    -11.26510279	     76.39034127	      1.33326297	     -1.11711420	    -10.01613100	      0.00000000	     21.84600600	      4.33003106	     -7.71985623	     39.58367670	      0.69086549	     20.18733766	      2.66267670	      0.00000000
      7.54000000	     -3.91946939	      3.94919863	      2.33493074	      2.23293246	      0.92610643	      1.01627192	     16.85893486	    -11.40167752	    -10.58230099	     77.28537760	      1.34888430	     -0.21671383	     -9.50880540	      0.00000000	     20.72472391	      4.12159899	     -7.71415873	     40.13434107	      0.70047639	     21.70753683	      3.66936305	      0.00000000
      7.54666667	     -3.74933208	      3.83811868	      2.55939762	      2.23125703	      0.92549579	      1.01619814	     18.22279334	    -10.98240930	     -9.95384417	     77.89348213	      1.35949773	      0.58610479	     -9.09455233	      0.00000000	     19.53773959	      3.87626686	     -7.73794739	     40.32174151	      0.70374715	     23.03610197	      4.72790797	      0.00000000
      7.55333333	     -3.67567897	      3.76138537	      2.79717087	      2.22977063	      0.92541229	      1.01601879	     19.61474925	    -10.62056895	     -9.39684609	     78.23285679	      1.36542093	      1.46511382	     -8.70437255	      0.00000000	     18.25615192	      3.72189088	     -7.67977070	     40.11016658	      0.70005447	     24.07542618	      5.60900143	      0.00000000
      7.56000000	     -3.79734300	      3.56267716	      3.19104920	      2.22850281	      0.92591935	      1.01565951	     21.04934323	    -10.17592949	     -9.08909149	     78.17246419	      1.36436688	      1.97697407	     -8.67943369	      0.00000000	     17.01017771	      3.58193208	     -7.22971104	     39.50202173	      0.68944034	     24.69060104	      6.00181503	      0.00000000
      7.56666667	     -3.90886931	      3.56780534	      3.24794238	      2.22729630	      0.92670350	      1.01577062	     22.56085381	     -9.87290629	     -8.49629545	     78.03138391	      1.36190457	      2.96539878	     -8.31808612	      0.00000000	     15.62641082	      3.40771299	     -7.57252324	     38.71588891	      0.67571973	     25.49504493	      7.37030573	      0.00000000
      7.57333333	     -4.33523121	      3.29919681	      3.63941150	      2.22640412	      0.92789732	      1.01546504	     24.14473541	     -9.43679520	     -8.40590262	     77.43256796	      1.35145326	      3.51465270	     -8.37739306	      0.00000000	     14.48724024	      3.17369284	     -7.23127970	     37.65631719	      0.65722672	     25.86186826	      7.81702792	      0.00000000
      7.58000000	     -4.78499673	      3.09642125	      3.89296573	      2.22551504	      0.92951811	      1.01540797	     25.73230826	     -8.98568276	     -8.17435022	     76.61860988	      1.33724701	      4.24307578	     -8.52785867	      0.00000000	     13.25982022	      3.02392902	     -6.90119626	     36.33858716	      0.63422799	     26.05464728	      8.52684242	      0.00000000
      7.58666667	     -5.19582589	      2.95637193	      4.09274267	      2.22497058	      0.93164255	      1.01548199	     27.15233570	     -8.61079575	     -7.97994681	     75.52553373	      1.31816923	      4.92785592	     -8.82963624	      0.00000000	     11.85009521	      2.86775226	     -6.84508486	     34.74628341	      0.60643705	     25.87162301	      9.33154921	      0.00000000
      7.59333333	     -5.13044157	      2.68421286	      4.20643048	      2.22481620	      0.93497873	      1.01567659	     27.84715775	     -8.05419788	     -7.92280851	     73.97130145	      1.29104276	      5.30934073	     -9.41842041	      0.00000000	      9.77582338	      2.56850268	     -6.73149003	     32.80734114	      0.57259612	     25.40840110	      9.98364217	      0.00000000
      7.60000000	     -5.08708688	      2.09512226	      4.63548893	      2.22492538	      0.93875561	      1.01551829	     28.30715634	     -7.34581662	     -8.38794957	     72.02058087	      1.25699627	      5.75161178	     -9.91074514	      0.00000000	      7.77003756	      2.03006287	     -6.08610053	     30.85025538	      0.53843853	     24.59655148	     10.24226606	      0.00000000
      7.60666667	     -5.94997802	      1.78964947	      4.84084830	      2.22460849	      0.94130265	      1.01569647	     29.90799234	     -6.92316512	     -8.50158672	     70.19828322	      1.22519117	      6.30919325	    -10.13868585	      0.00000000	      6.87803898	      1.79080650	     -5.81914086	     29.16727076	      0.50906491	     23.75819015	     10.83417549	      0.00000000
      7.61333333	     -5.36660413	      1.17246622	      5.17558583	      2.22526358	      0.94657663	      1.01564085	     29.45631093	     -6.12675428	     -9.06017315	     67.56316316	      1.17919965	      6.37498846	    -11.02615835	      0.00000000	      4.05014522	      1.29621340	     -4.75256485	     26.55664150	      0.46350083	     21.79968500	      9.90335002	      0.00000000
      7.62000000	     -6.06026641	      0.84625021	      5.29187665	      2.22525710	      0.94974489	      1.01602197	     30.63128310	     -5.67469780	     -9.26798787	     65.24012684	      1.13865502	      6.76380751	    -11.34474694	      0.00000000	      2.97576309	      0.98067986	     -4.69057847	     24.74733982	      0.43192256	     19.91912341	     10.14110596	      0.00000000
      7.62666667	     -5.48600588	      0.11854887	      5.65220120	      2.22608454	      0.95527158	      1.01593757	     29.95300259	     -4.84089341	    -10.06666350	     62.12478319	      1.08428201	      6.92066175	    -11.75332034	      0.00000000	      0.25489932	      0.36992015	     -3.37647434	     22.18370903	      0.38717876	     17.45774180	      8.69841086	      0.00000000
      7.63333333	     -5.56486972	     -0.45661908	      5.79790579	      2.22659957	      0.95969801	      1.01623239	     30.05973280	     -4.11772369	    -10.58653178	     59.05223229	      1.03065588	      7.10061488	    -11.90478884	      0.00000000	     -1.50621988	     -0.17883894	     -2.84615735	     20.13529666	      0.35142722	     14.88189640	      7.90176943	      0.00000000
      7.64000000	     -5.67361121	     -1.01909560	      5.90330886	      2.22715342	      0.96402853	      1.01661709	     30.10887950	     -3.38669040	    -11.09401715	     55.80572312	      0.97399361	      7.41344657	    -11.91263906	      0.00000000	     -3.11717311	     -0.74225889	     -2.47697255	     18.27086138	      0.31888669	     12.08816203	      7.11166209	      0.00000000
      7.64666667	     -6.78263399	     -1.27698822	      5.81795710	      2.22714250	      0.96670808	      1.01731682	     31.36231178	     -3.01169266	    -11.30382445	     52.77454225	      0.92108952	      7.89579914	    -11.44262806	      0.00000000	     -3.19832868	     -1.01530198	     -3.02026723	     17.36045127	      0.30299703	      9.72855458	      7.42552109	      0.00000000
      7.65333333	     -7.71879725	     -1.52667032	      5.64493663	      2.22724388	      0.96959319	      1.01812557	     32.28482150	     -2.55984517	    -11.46921636	     49.47974664	      0.86358449	      8.31073448	    -10.82731548	      0.00000000	     -3.41431974	     -1.28004790	     -3.64918440	     16.51281252	      0.28820295	      7.08806411	      7.40120383	      0.00000000
      7.66000000	     -6.44102118	     -2.43630971	      5.77183185	      2.22864172	      0.97570173	      1.01846314	     30.20546168	     -1.32945176	    -12.40046068	     45.12630049	      0.78760252	      8.35369835	    -10.12987973	      0.00000000	     -6.52180768	     -2.25704821	     -2.92385377	     14.38989391	      0.25115103	      3.39913955	      5.12874544	      0.00000000
